<?xml version="1.0" encoding="UTF-8"?>
<svg version="1.1" xmlns="http://www.w3.org/2000/svg" width="300" height="300">
<path d="M0 0 C14.52574452 10.89430839 26.39631053 23.98012106 34.5625 40.3125 C35.31273437 38.91644531 35.31273437 38.91644531 36.078125 37.4921875 C38.70690693 33.5490146 41.89180068 32.65757959 46.3125 31.4375 C47.00988281 31.22609375 47.70726562 31.0146875 48.42578125 30.796875 C50.13226758 30.28259145 51.84670045 29.79480186 53.5625 29.3125 C57.0584657 33.3336444 59.36894663 37.50269585 61.6875 42.25 C62.03425781 42.94029297 62.38101562 43.63058594 62.73828125 44.34179688 C67.28429409 53.52961977 69.57143436 62.53234654 66.5625 72.6875 C63.11518488 77.21210109 59.02839939 81.49053354 53.5625 83.3125 C52.16810336 83.37915376 50.77080125 83.39788199 49.375 83.375 C48.116875 83.354375 46.85875 83.33375 45.5625 83.3125 C45.58344727 83.88468262 45.60439453 84.45686523 45.62597656 85.04638672 C46.63725347 117.10642477 36.78675758 144.26582453 14.76635742 168.03393555 C-2.08487301 185.7238234 -27.87281801 199.10053144 -52.58691406 200.48950195 C-88.32279881 201.14004642 -116.98777316 193.38079818 -143.6328125 168.12890625 C-147.61568681 164.1293904 -151.08462257 159.84494394 -154.4375 155.3125 C-155.00339844 154.55839844 -155.56929687 153.80429688 -156.15234375 153.02734375 C-156.57644531 152.46144531 -157.00054687 151.89554688 -157.4375 151.3125 C-164.19818593 152.42080917 -170.45860504 154.27239453 -176.9375 156.4375 C-183.67021722 158.66642452 -189.27712088 160.01679959 -196.4375 159.3125 C-194.71094775 149.85155517 -193.49106859 143.96827302 -185.5 138.1875 C-180.82115688 134.52949538 -178.81252612 128.59314319 -176.4375 123.3125 C-177.00597656 123.16554687 -177.57445312 123.01859375 -178.16015625 122.8671875 C-185.67880475 120.68313935 -190.03281829 117.33376676 -194.875 111.25 C-197.88019429 105.3827159 -197.38352606 97.97905069 -195.77734375 91.75390625 C-192.43671754 83.40957152 -187.09705342 78.17405672 -179.3125 73.9375 C-172.79123774 69.80305209 -171.75967754 65.64779218 -170.15649414 58.51123047 C-169.97981201 57.71990723 -169.80312988 56.92858398 -169.62109375 56.11328125 C-163.97601041 31.33791548 -144.06815723 9.61848366 -123.3125 -3.75 C-84.91061406 -26.69197176 -36.8107774 -25.78329772 0 0 Z " fill="#FBFAFA" transform="translate(214.4375,59.6875)"/>
<path d="M0 0 C-2.99692452 13.58849714 -6.7647045 26.90320419 -10.6875 40.25 C-11.5792827 43.2936879 -12.46976403 46.33774288 -13.35786438 49.38250732 C-13.90533411 51.25855352 -14.45501259 53.13395704 -15.00724792 55.00860596 C-16.17004161 58.98524718 -17.29740967 62.91009024 -18 67 C-13.35528904 64.61487816 -11.05305145 62.17772521 -9.39086914 57.16186523 C-8.79806412 55.05141807 -8.24085422 52.93361308 -7.6875 50.8125 C-4.41153463 39.0825919 1.0155318 29.57274433 11.25 22.5625 C15.89128961 20.13684864 20.91783958 20.2392445 26 21 C29.90209726 22.95104863 30.70567758 24.14973523 32.125 28.25 C31.92962324 34.11130269 29.40209912 37.68824532 25.234375 41.69921875 C19.4069437 46.40143466 12.56769404 50 5 50 C5.99 53.96 5.99 53.96 7 58 C12.43363996 58.83594461 15.47342812 56.94661576 19.71484375 53.859375 C30.66319409 44.9509737 37.7661461 31.32065889 42.0625 18 C43.07982769 15.17900438 43.54131966 14.26707969 46.16015625 12.7421875 C49.13517999 11.6955072 51.84054211 11 55 11 C56.294174 13.56126064 57.58540784 16.12393358 58.875 18.6875 C59.42220703 19.7693457 59.42220703 19.7693457 59.98046875 20.87304688 C63.99436921 28.8643578 65.98938311 34.8853081 65 44 C62.73361668 48.881441 59.86479088 51.70028068 55 54 C49.78085519 54.75217087 45.5312574 54.85750414 40.875 52.25 C38.98830347 49.98596416 38.57649923 48.8001391 38 46 C38.60328125 46.09539062 39.2065625 46.19078125 39.828125 46.2890625 C40.62734375 46.39992187 41.4265625 46.51078125 42.25 46.625 C43.03890625 46.74101562 43.8278125 46.85703125 44.640625 46.9765625 C47.3606779 47.00358289 48.73485839 46.47334432 51 45 C53.06092568 40.87814865 52.48488829 36.49066093 51.10546875 32.25 C50.12282167 29.80553518 49.09897971 27.3942058 48 25 C47.52691406 26.00417969 47.05382812 27.00835937 46.56640625 28.04296875 C38.6802039 44.47575455 30.18711986 59.15656705 13 67 C8.30382417 68.47033968 2.64778757 69.23491518 -1.91796875 67.10546875 C-3.5625 66 -3.5625 66 -6 64 C-6.31453125 64.54269531 -6.6290625 65.08539063 -6.953125 65.64453125 C-11.58482143 73.38727679 -11.58482143 73.38727679 -15 75 C-19.5092349 76.07847991 -22.79624393 76.56502836 -27.0625 74.5625 C-27.701875 74.046875 -28.34125 73.53125 -29 73 C-29.51949219 73.48210937 -30.03898438 73.96421875 -30.57421875 74.4609375 C-36.54910685 79.87257368 -36.54910685 79.87257368 -39.875 80.8125 C-40.57625 81.204375 -41.2775 81.59625 -42 82 C-42.63778164 84.40215567 -42.97479492 86.80562063 -43.3515625 89.26171875 C-44.90139254 95.80648294 -49.44103937 101.34278906 -55 105 C-55.61875 105.4125 -56.2375 105.825 -56.875 106.25 C-61.02203076 107.71365791 -64.68317741 107.58185184 -68.6875 105.8125 C-71.25591956 103.7994144 -73.08094199 101.62982024 -75 99 C-74.67 98.34 -74.34 97.68 -74 97 C-73.34 97.33 -72.68 97.66 -72 98 C-66.40197052 98.59565419 -66.40197052 98.59565419 -61.4453125 96.36328125 C-58.70438327 93.71430012 -57.31984885 91.30841592 -55.6875 87.875 C-55.17574219 86.82054687 -54.66398438 85.76609375 -54.13671875 84.6796875 C-52.86982821 82.17827067 -52.86982821 82.17827067 -53 80 C-53.31453125 80.48210937 -53.6290625 80.96421875 -53.953125 81.4609375 C-58.44118062 88.08487502 -58.44118062 88.08487502 -62 89 C-69 89.66666667 -69 89.66666667 -73 87 C-73.66 86.34 -74.32 85.68 -75 85 C-75.37511719 85.61488281 -75.75023437 86.22976562 -76.13671875 86.86328125 C-81.5164034 95.35965978 -81.5164034 95.35965978 -86 97 C-90.41288598 97.3804212 -92.27420911 97.48386059 -96 95 C-96.66 94.01 -97.32 93.02 -98 92 C-98.36351563 92.53109375 -98.72703125 93.0621875 -99.1015625 93.609375 C-105.87780336 103.13086215 -105.87780336 103.13086215 -111.9453125 104.41015625 C-116.00633132 104.71125841 -118.34300295 104.11345746 -121.5 101.5 C-122.325 100.675 -123.15 99.85 -124 99 C-124.36351563 99.66386719 -124.72703125 100.32773438 -125.1015625 101.01171875 C-130.75517114 110.94177495 -136.36046941 114.47268607 -147 118 C-148.62594592 118.62253503 -150.25093345 119.24757842 -151.875 119.875 C-163.29588159 124.04006825 -175.1979365 127.11474583 -187 130 C-187.1224229 127.12306176 -187.07479753 125.63106546 -186 123 C-183.71287299 120.71287299 -181.31425148 118.75132889 -178.73828125 116.796875 C-169.15277756 107.00626068 -166.72594704 92.78257718 -163.1875 80 C-162.59824238 77.90720334 -162.0077574 75.81475186 -161.41601562 73.72265625 C-160.12366401 69.14996358 -158.84313878 64.57414231 -157.57341003 59.99511719 C-157.09120829 58.31734922 -156.55203477 56.65610431 -156 55 C-164.62401848 56.59636087 -170.25666138 60.40773724 -176 67 C-180.02639507 72.94619685 -180.83590586 78.94256625 -180 86 C-179.12899451 89.4614054 -179.12899451 89.4614054 -178 92 C-183.03372844 90.56179187 -184.98955889 88.09754485 -188 84 C-189.78199537 78.65401389 -189.9786266 72.89929564 -188.1640625 67.5234375 C-181.46041669 54.43108226 -167.57801266 48.68164213 -154.26991272 44.34008789 C-149.60896161 42.87217427 -144.93163473 41.46275328 -140.25 40.0625 C-138.30696339 39.46917294 -136.36425236 38.87477857 -134.421875 38.27929688 C-132.57841287 37.71780402 -130.73467302 37.15722194 -128.890625 36.59765625 C-127.5939389 36.20405663 -127.5939389 36.20405663 -126.27105713 35.80250549 C-125.47552429 35.56482956 -124.67999146 35.32715363 -123.86035156 35.08227539 C-123.16089417 34.87244522 -122.46143677 34.66261505 -121.74078369 34.44642639 C-120 34 -120 34 -118 34 C-117.32595716 36.56076097 -116.660586 39.12326583 -116 41.6875 C-115.80921875 42.40873047 -115.6184375 43.12996094 -115.421875 43.87304688 C-114.45134572 47.66850961 -113.75044761 51.04615439 -114 55 C-114.99 55 -115.98 55 -117 55 C-118.31640625 53.50390625 -118.31640625 53.50390625 -119.5625 51.5625 C-121.30536929 48.76740279 -121.30536929 48.76740279 -124 47 C-125.62860483 47.06242039 -127.25493456 47.19712931 -128.875 47.375 C-129.73867187 47.46523437 -130.60234375 47.55546875 -131.4921875 47.6484375 C-132.31976563 47.76445312 -133.14734375 47.88046875 -134 48 C-135.01707031 48.13656006 -135.01707031 48.13656006 -136.0546875 48.27587891 C-138.13723114 48.81375971 -138.13723114 48.81375971 -138.97314453 50.71484375 C-139.29968018 51.81505859 -139.29968018 51.81505859 -139.6328125 52.9375 C-139.88160156 53.75089844 -140.13039062 54.56429687 -140.38671875 55.40234375 C-140.63035156 56.25957031 -140.87398437 57.11679688 -141.125 58 C-141.50205078 59.23943359 -141.50205078 59.23943359 -141.88671875 60.50390625 C-143.51605429 65.95492933 -144.82193954 71.43506676 -146 77 C-145.18015625 76.71125 -144.3603125 76.4225 -143.515625 76.125 C-142.43796875 75.75375 -141.3603125 75.3825 -140.25 75 C-139.18265625 74.62875 -138.1153125 74.2575 -137.015625 73.875 C-134 73 -134 73 -130 73 C-130 75.8125 -130 75.8125 -131 79 C-134.5247199 80.66623122 -137.77125235 81.74308004 -141.578125 82.5390625 C-144.56948302 83.35407322 -146.53637278 84.09143611 -149 86 C-150.72350474 89.67944142 -151.78700151 93.30844218 -152.8515625 97.21484375 C-154.79022458 103.6045157 -158.30008761 108.36353398 -163 113 C-159.12002613 111.76509518 -155.24707594 110.50942955 -151.375 109.25 C-150.28058594 108.90195313 -149.18617188 108.55390625 -148.05859375 108.1953125 C-139.23074922 105.30619974 -132.60798649 102.37024266 -128 94 C-126.81945731 91.0941525 -125.9343452 88.13567476 -125.0625 85.125 C-121.37401748 73.38881132 -115.82391071 64.36355357 -105.0078125 57.7890625 C-102.70066198 56.88236132 -100.97198516 56.76593864 -98.5 56.8125 C-97.7471875 56.81894531 -96.994375 56.82539063 -96.21875 56.83203125 C-94.04009857 56.99696437 -92.09795189 57.40399094 -90 58 C-89.79375 57.38125 -89.5875 56.7625 -89.375 56.125 C-87.41845426 53.10124749 -85.43162522 52.82359005 -82 52 C-80.68 52 -79.36 52 -78 52 C-80.20535808 61.03258364 -82.5112466 70.00187106 -85.16796875 78.9140625 C-85.98188005 81.93279455 -86.54057416 84.9093171 -87 88 C-82.77278323 86.12123699 -80.88877244 83.80414208 -78.95703125 79.6328125 C-77.76220376 76.34581768 -76.95861709 73.02121777 -76.125 69.625 C-73.34532705 58.53232486 -68.2970835 50.78244377 -59 44 C-54.46689131 42.48896377 -49.98884956 43.14320778 -45.25 43.35546875 C-41.93247151 43.36907711 -41.93247151 43.36907711 -40.35546875 41.06640625 C-39.90816406 40.38449219 -39.46085938 39.70257813 -39 39 C-36.73828125 38.171875 -36.73828125 38.171875 -34.3125 37.75 C-33.50425781 37.60046875 -32.69601563 37.4509375 -31.86328125 37.296875 C-31.24839844 37.19890625 -30.63351563 37.1009375 -30 37 C-32.14680987 49.25941423 -35.4505322 61.08060815 -39 73 C-29.47319391 66.57494473 -27.1547179 54.97121553 -24.30078125 44.40234375 C-23.81909737 42.66821983 -23.81909737 42.66821983 -23.3276825 40.89906311 C-22.31409311 37.24750061 -21.31218861 33.59289048 -20.3125 29.9375 C-19.30124627 26.25023202 -18.28733154 22.56379521 -17.2651825 18.87953186 C-16.63199377 16.59654403 -16.00516552 14.31178065 -15.3853302 12.02513123 C-14.95929756 10.48696495 -14.95929756 10.48696495 -14.5246582 8.91772461 C-14.27770706 8.01380478 -14.03075592 7.10988495 -13.77632141 6.17857361 C-13 4 -13 4 -11 2 C-7.10879026 0.70293009 -4.12193682 0 0 0 Z " fill="#0F1723" transform="translate(212,84)"/>
<path d="M0 0 C0.495 0.268125 0.99 0.53625 1.5 0.8125 C4.9236946 2.43875493 8.44132285 3.69515171 12 5 C13.20011284 37.78154372 3.78987116 65.34281945 -18.79614258 89.72143555 C-35.64737301 107.4113234 -61.43531801 120.78803144 -86.14941406 122.17700195 C-121.88529881 122.82754642 -150.55027316 115.06829818 -177.1953125 89.81640625 C-181.17818681 85.8168904 -184.64712257 81.53244394 -188 77 C-188.58652344 76.30777344 -189.17304688 75.61554688 -189.77734375 74.90234375 C-190.18082031 74.27457031 -190.58429688 73.64679688 -191 73 C-190.67 72.01 -190.34 71.02 -190 70 C-188.36108398 69.18798828 -188.36108398 69.18798828 -186.24609375 68.5703125 C-185.0869043 68.21259766 -185.0869043 68.21259766 -183.90429688 67.84765625 C-182.68323242 67.48994141 -182.68323242 67.48994141 -181.4375 67.125 C-174.08225375 64.96842493 -166.60664868 62.6655997 -162 56.1875 C-161.67 55.465625 -161.34 54.74375 -161 54 C-157.47546103 55.17484632 -156.97670817 56.10284815 -154.875 59.0625 C-144.40737621 72.85179146 -128.8520986 81.44703189 -112 85 C-108.12803797 85.22511407 -104.25285806 85.18515547 -100.375 85.1875 C-99.33214844 85.19974609 -98.28929687 85.21199219 -97.21484375 85.22460938 C-76.73086573 85.26296888 -58.45118939 77.05310519 -43.80078125 62.87109375 C-38.72142349 57.46278711 -35.1988665 51.67036367 -32 45 C-31.54625 44.07445312 -31.0925 43.14890625 -30.625 42.1953125 C-28.61988301 37.79121626 -26.98924665 33.76288368 -26.515625 28.9296875 C-26.08344434 24.65956533 -25.56343291 21.03224364 -24 17 C-20.74568284 14.54415588 -17.434732 13.12205159 -13.67578125 11.66015625 C-7.84954259 9.30873909 -4.07227695 4.66341392 0 0 Z " fill="#EA5E26" transform="translate(248,138)"/>
<path d="M0 0 C14.52574452 10.89430839 26.39631053 23.98012106 34.5625 40.3125 C34.75 43.3125 34.75 43.3125 34.5625 46.3125 C33.9025 46.9725 33.2425 47.6325 32.5625 48.3125 C31.82 47.52875 31.0775 46.745 30.3125 45.9375 C25.79488043 41.62522678 22.43145203 40.81297718 16.296875 40.921875 C10.74697353 41.71471807 5.75764899 44.50497025 1.4609375 48.04296875 C0.83445313 48.46191406 0.20796875 48.88085938 -0.4375 49.3125 C-1.4275 48.9825 -2.4175 48.6525 -3.4375 48.3125 C-2.86990789 41.30740754 -1.39096459 34.9714411 0.625 28.25 C0.90666016 27.28900391 1.18832031 26.32800781 1.47851562 25.33789062 C2.16651284 22.99403571 2.8612601 20.65242007 3.5625 18.3125 C0.99885601 18.93307657 -1.56334926 19.55879199 -4.125 20.1875 C-4.84623047 20.36152344 -5.56746094 20.53554687 -6.31054688 20.71484375 C-12.02683528 22.08037315 -12.02683528 22.08037315 -17.4375 24.3125 C-18.80939827 27.34232306 -18.80939827 27.34232306 -19.4375 30.3125 C-21.93794694 29.08766178 -24.38645581 27.79875496 -26.8359375 26.47265625 C-44.48806309 17.05103813 -65.83294068 13.50374168 -85.4375 19.3125 C-100.78704187 24.17572119 -116.73774984 33.18738098 -124.52804565 47.82516479 C-129.13926893 56.15704756 -134.0813818 59.3779743 -143.08647156 62.13189697 C-145.65321154 62.8544988 -148.23043047 63.52201816 -150.8125 64.1875 C-152.5652552 64.6836975 -154.31658123 65.18497247 -156.06640625 65.69140625 C-161.82948627 67.34119944 -167.62033794 68.86462692 -173.4375 70.3125 C-166.30854744 39.08905873 -150.58377967 13.81512225 -123.3125 -3.75 C-84.91061406 -26.69197176 -36.8107774 -25.78329772 0 0 Z " fill="#EA5D26" transform="translate(214.4375,59.6875)"/>
<path d="M0 0 C1 2 1 2 0.56616211 3.93603516 C-0.2949341 6.5046657 -1.16802044 9.06777624 -2.0625 11.625 C-2.4946582 12.94177734 -2.4946582 12.94177734 -2.93554688 14.28515625 C-5.00337561 20.24510803 -7.57901797 25.41815977 -12 30 C-14.75 31.125 -14.75 31.125 -17 31 C-19 29 -19 29 -19.4375 25.125 C-19.20987213 15.71638136 -14.51036442 7.51036442 -8 1 C-5.29120665 -0.35439668 -2.99066732 -0.06501451 0 0 Z " fill="#F8F8F9" transform="translate(118,148)"/>
<path d="M0 0 C1.44243593 4.51879821 0.01260272 7.88496288 -1.5625 12.1875 C-1.83771484 12.94546875 -2.11292969 13.7034375 -2.39648438 14.484375 C-6.65777359 25.80251447 -6.65777359 25.80251447 -11 30 C-14.375 31.0625 -14.375 31.0625 -17 31 C-19.02434974 26.95130051 -18.56592922 22.39139308 -18 18 C-15.37301396 10.35359421 -9.8975056 -1.79954647 0 0 Z " fill="#F6F7F7" transform="translate(166,133)"/>
<path d="M0 0 C4.44710696 4.04848673 6.12663715 9.31029913 6.4375 15.25 C6 19 6 19 4.4375 21.4375 C1.25424244 23.47804972 -1.24547161 23.79886455 -5 24 C-6.33333333 23.66666667 -7.66666667 23.33333333 -9 23 C-9.99 23.66 -10.98 24.32 -12 25 C-10.12007913 19.90854765 -7.51760436 15.27677608 -4.921875 10.52734375 C-3.05531774 7.07978464 -1.3615944 3.68765149 0 0 Z " fill="#F2F2F3" transform="translate(259,108)"/>
<path d="M0 0 C4.40114397 0.50298788 6.71195019 2.08772731 10 5 C9.38101172 9.02342383 7.55460568 11.87770417 5 15 C2.625 15.625 2.625 15.625 0 15 C-3.3125 13 -3.3125 13 -6 11 C-4.54955729 6.89041233 -2.48889248 3.56741255 0 0 Z " fill="#F2DCD4" transform="translate(99,218)"/>
<path d="M0 0 C0.7425 0.2475 1.485 0.495 2.25 0.75 C2.25 4.50200112 2.24648623 6.6964358 -0.38671875 9.48046875 C-4.26925277 12.47556643 -7.94391911 14.54847978 -12.75 15.75 C-11.09695687 9.96434906 -7.18273136 -0.65297558 0 0 Z " fill="#F2F3F3" transform="translate(231.75,112.25)"/>
<path d="M0 0 C0.66 0 1.32 0 2 0 C2 0.99 2 1.98 2 3 C2.928125 2.938125 3.85625 2.87625 4.8125 2.8125 C8 3 8 3 9.875 4.1875 C11.38332602 6.61758081 11.36023622 8.19015752 11 11 C9 13 9 13 5.5 13.25 C2 13 2 13 0 11 C-0.1953125 8.3984375 -0.1953125 8.3984375 -0.125 5.375 C-0.10695312 4.37210938 -0.08890625 3.36921875 -0.0703125 2.3359375 C-0.04710937 1.56507813 -0.02390625 0.79421875 0 0 Z " fill="#F3E6E1" transform="translate(144,234)"/>
<path d="M0 0 C2.46800047 1.15173355 4.04783565 2.04783565 6 4 C6.375 6.4375 6.375 6.4375 6 9 C4.25 10.875 4.25 10.875 2 12 C-1.36653624 11.58597034 -2.96524348 10.37803537 -5.25 7.9375 C-5.77078125 7.38964844 -6.2915625 6.84179688 -6.828125 6.27734375 C-7.40820312 5.64505859 -7.40820312 5.64505859 -8 5 C-7.67 4.34 -7.34 3.68 -7 3 C-5.67203709 2.64587656 -4.33783393 2.31478446 -3 2 C-2.01 1.34 -1.02 0.68 0 0 Z " fill="#F2E0D9" transform="translate(214,211)"/>
<path d="M0 0 C1.45792884 -0.05399736 2.91642712 -0.09279177 4.375 -0.125 C5.18710938 -0.14820313 5.99921875 -0.17140625 6.8359375 -0.1953125 C9 0 9 0 11 2 C11.25 5 11.25 5 11 8 C9 10 9 10 7.0546875 10.1953125 C5.03645833 10.13020833 3.01822917 10.06510417 1 10 C0.375 7.625 0.375 7.625 0 5 C0.66 4.34 1.32 3.68 2 3 C1.34 2.67 0.68 2.34 0 2 C0 1.34 0 0.68 0 0 Z " fill="#F2E0D9" transform="translate(157,237)"/>
<path d="M0 0 C3.73487777 0.4979837 5.81237635 0.87491756 9 3 C8.125 8.75 8.125 8.75 7 11 C-0.75 10.125 -0.75 10.125 -3 9 C-2.67 7.35 -2.34 5.7 -2 4 C1.875 3 1.875 3 3 3 C2.01 2.01 1.02 1.02 0 0 Z " fill="#F2D9D0" transform="translate(174,58)"/>
<path d="M0 0 C3.37462715 0.54723683 5.08235 1.0549 8 3 C7.5020163 6.73487777 7.12508244 8.81237635 5 12 C1.17902761 11.46930939 -1.06171403 10.50298434 -4 8 C-3.67 6.68 -3.34 5.36 -3 4 C0.05263664 3.01879536 1.94736336 3.01879536 5 4 C4.175 3.525625 3.35 3.05125 2.5 2.5625 C1.675 2.046875 0.85 1.53125 0 1 C0 0.67 0 0.34 0 0 Z " fill="#F2DAD0" transform="translate(110,228)"/>
<path d="M0 0 C2.29013653 3.4352048 2.17842973 4.985331 2 9 C-1.13498292 10.85776765 -3.37471432 11.20140476 -7 11 C-7.33 9.35 -7.66 7.7 -8 6 C-5.35261084 4.5393715 -4.10551666 4 -1 4 C-1 3.34 -1 2.68 -1 2 C-3.64 2.66 -6.28 3.32 -9 4 C-9 3.34 -9 2.68 -9 2 C-5.89782379 0.16167336 -3.60591321 -0.47446226 0 0 Z " fill="#F1C7B7" transform="translate(126,58)"/>
<path d="M0 0 C2.72869407 0.03287583 5.2966618 0.56397771 8 1 C8.38218767 2.65614657 8.71395102 4.32457024 9 6 C8.67 6.33 8.34 6.66 8 7 C5.30917128 6.82364548 2.67148554 6.38164079 0 6 C0 6.66 0 7.32 0 8 C2.64 8.33 5.28 8.66 8 9 C8 9.66 8 10.32 8 11 C0.25 10.25 0.25 10.25 -2 8 C-2.25 5 -2.25 5 -2 2 C-1.34 1.34 -0.68 0.68 0 0 Z " fill="#F2E3DC" transform="translate(133,236)"/>
<path d="M0 0 C0.66 0 1.32 0 2 0 C2.33 2.64 2.66 5.28 3 8 C3.99 8.33 4.98 8.66 6 9 C6 6.03 6 3.06 6 0 C6.99 0 7.98 0 9 0 C9.1953125 6.0546875 9.1953125 6.0546875 9 8 C7 10 7 10 3.99609375 10.23046875 C2.82175781 10.21628906 1.64742187 10.20210937 0.4375 10.1875 C-1.32787109 10.17783203 -1.32787109 10.17783203 -3.12890625 10.16796875 C-6 10 -6 10 -7 9 C-7.14115161 6.32941149 -7.04247107 3.67567762 -7 1 C-6.34 1 -5.68 1 -5 1 C-4.67 3.31 -4.34 5.62 -4 8 C-3.01 8 -2.02 8 -1 8 C-0.67 5.36 -0.34 2.72 0 0 Z " fill="#F2DBD2" transform="translate(149,54)"/>
<path d="M0 0 C3 1 3 1 4.38671875 3.50390625 C4.81597656 4.51324219 5.24523437 5.52257812 5.6875 6.5625 C6.34298828 8.08037109 6.34298828 8.08037109 7.01171875 9.62890625 C7.50091797 10.80259766 7.50091797 10.80259766 8 12 C7.01 12 6.02 12 5 12 C3.3125 9.5 3.3125 9.5 2 7 C0.02 7.66 -1.96 8.32 -4 9 C-3.649375 9.5775 -3.29875 10.155 -2.9375 10.75 C-2 13 -2 13 -3 17 C-4.98 13.04 -6.96 9.08 -9 5 C-8.01 5 -7.02 5 -6 5 C-6 5.99 -6 6.98 -6 8 C-5.05125 7.505 -4.1025 7.01 -3.125 6.5 C0 5 0 5 2 5 C1.34 3.35 0.68 1.7 0 0 Z " fill="#F2E1DA" transform="translate(110,59)"/>
<path d="M0 0 C5.94 1.485 5.94 1.485 12 3 C11.34 4.98 10.68 6.96 10 9 C7.525 8.01 7.525 8.01 5 7 C5 6.34 5 5.68 5 5 C2.36 5 -0.28 5 -3 5 C-3 4.34 -3 3.68 -3 3 C-2.34 3 -1.68 3 -1 3 C-0.67 2.01 -0.34 1.02 0 0 Z " fill="#F7D7BF" transform="translate(165,77)"/>
<path d="M0 0 C0.53625 0.2475 1.0725 0.495 1.625 0.75 C-0.685 2.07 -2.995 3.39 -5.375 4.75 C-5.045 6.73 -4.715 8.71 -4.375 10.75 C-1.8532018 11.65064221 -0.80196982 11.94407719 1.6875 10.8125 C2.326875 10.461875 2.96625 10.11125 3.625 9.75 C4.615 9.75 5.605 9.75 6.625 9.75 C6.625 10.41 6.625 11.07 6.625 11.75 C0.505 14.75 0.505 14.75 -3.125 14.75 C-6.2474441 13.36224707 -7.03424439 11.85490774 -8.375 8.75 C-8.9375 6.1875 -8.9375 6.1875 -8.375 3.75 C-3.59475309 -0.37839506 -3.59475309 -0.37839506 0 0 Z " fill="#F2E0D9" transform="translate(190.375,225.25)"/>
<path d="M0 0 C6.15234375 0.5859375 6.15234375 0.5859375 8 1 C8.33 1.66 8.66 2.32 9 3 C6.36 2.67 3.72 2.34 1 2 C1 2.66 1 3.32 1 4 C3.31 4.66 5.62 5.32 8 6 C7.67 7.32 7.34 8.64 7 10 C2.94568308 11.15837626 0.78187881 10.83691257 -3 9 C-3 8.34 -3 7.68 -3 7 C-0.36 7.66 2.28 8.32 5 9 C5 8.34 5 7.68 5 7 C3.02 6.34 1.04 5.68 -1 5 C-0.67 3.35 -0.34 1.7 0 0 Z " fill="#F2DED6" transform="translate(121,233)"/>
<path d="M0 0 C4.40021656 0.36668471 6.744666 2.11670417 10 5 C9.67 6.32 9.34 7.64 9 9 C2.25 7.125 2.25 7.125 0 6 C-0.6875 3.5 -0.6875 3.5 -1 1 C-0.67 0.67 -0.34 0.34 0 0 Z " fill="#F2DBD2" transform="translate(99,218)"/>
<path d="M0 0 C0.66 0 1.32 0 2 0 C2 1.32 2 2.64 2 4 C2.78375 3.95875 3.5675 3.9175 4.375 3.875 C7 4 7 4 9 6 C9.33333333 11.33333333 9.33333333 11.33333333 8 14 C7.34 14 6.68 14 6 14 C6.33 11.36 6.66 8.72 7 6 C5.35 6 3.7 6 2 6 C1.34 8.31 0.68 10.62 0 13 C-0.66 13 -1.32 13 -2 13 C-1.85966889 11.02043559 -1.7125877 9.04134859 -1.5625 7.0625 C-1.48128906 5.96035156 -1.40007812 4.85820313 -1.31640625 3.72265625 C-1 1 -1 1 0 0 Z " fill="#F3E9E6" transform="translate(161,52)"/>
<path d="M0 0 C3.5625 0.125 3.5625 0.125 5.5625 1.125 C6.15605614 3.77360427 6.30459269 6.41697322 6.5625 9.125 C5.5725 9.125 4.5825 9.125 3.5625 9.125 C3.5625 6.815 3.5625 4.505 3.5625 2.125 C1.5825 2.125 -0.3975 2.125 -2.4375 2.125 C-2.4375 5.095 -2.4375 8.065 -2.4375 11.125 C-3.0975 11.125 -3.7575 11.125 -4.4375 11.125 C-4.46438151 9.47925434 -4.48384123 7.83338587 -4.5 6.1875 C-4.51160156 5.27097656 -4.52320313 4.35445312 -4.53515625 3.41015625 C-4.37662397 -0.29949918 -3.84123287 0.1396812 0 0 Z " fill="#F2D6CB" transform="translate(134.4375,55.875)"/>
<path d="M0 0 C3 1 3 1 5 4 C5.375 6.5 5.375 6.5 5 9 C3.3125 10.875 3.3125 10.875 1 12 C-1.5625 12.0625 -1.5625 12.0625 -4 11 C-5.8125 7.9375 -5.8125 7.9375 -7 5 C-6.01 5 -5.02 5 -4 5 C-3.34 6.65 -2.68 8.3 -2 10 C-0.68 9.34 0.64 8.68 2 8 C1.47731534 5.23723823 0.89130413 2.6739124 0 0 Z " fill="#F2DFD7" transform="translate(205,219)"/>
<path d="M0 0 C3.52069985 0.58678331 5.71299843 1.35649921 9 3 C8.67 5.97 8.34 8.94 8 12 C7.01 12 6.02 12 5 12 C5 9.69 5 7.38 5 5 C2.525 4.01 2.525 4.01 0 3 C0 2.01 0 1.02 0 0 Z " fill="#F3C6A1" transform="translate(125,107)"/>
<path d="M0 0 C1.99954746 -0.04254356 4.00041636 -0.04080783 6 0 C7 1 7 1 7.125 3.5 C7 6 7 6 6 7 C3.5 7.125 3.5 7.125 1 7 C0 6 0 6 -0.0625 2.9375 C-0.041875 1.968125 -0.02125 0.99875 0 0 Z " fill="#EB7242" transform="translate(146,239)"/>
<path d="M0 0 C0.99 0 1.98 0 3 0 C3 1.98 3 3.96 3 6 C4.98 6 6.96 6 9 6 C9 6.99 9 7.98 9 9 C6.03 9 3.06 9 0 9 C0 6.03 0 3.06 0 0 Z " fill="#F3CAA7" transform="translate(162,198)"/>
<path d="M0 0 C0.99 0 1.98 0 3 0 C2.67 2.64 2.34 5.28 2 8 C3.32 8.66 4.64 9.32 6 10 C6 10.66 6 11.32 6 12 C3.69 11.67 1.38 11.34 -1 11 C-2.60080151 6.99799622 -1.29279692 3.95443764 0 0 Z " fill="#F3C7A3" transform="translate(191,177)"/>
<path d="M0 0 C0.66 0 1.32 0 2 0 C2 2.31 2 4.62 2 7 C4.97 7.495 4.97 7.495 8 8 C8 8.66 8 9.32 8 10 C1.25 10.125 1.25 10.125 -1 9 C-1.09765625 2.84765625 -1.09765625 2.84765625 -1 1 C-0.67 0.67 -0.34 0.34 0 0 Z " fill="#F2C49F" transform="translate(172,191)"/>
<path d="M0 0 C0.99 0 1.98 0 3 0 C2.67 2.64 2.34 5.28 2 8 C3.65 8.33 5.3 8.66 7 9 C7 9.66 7 10.32 7 11 C4.36 10.67 1.72 10.34 -1 10 C-0.67 6.7 -0.34 3.4 0 0 Z " fill="#F3C5A0" transform="translate(181,184)"/>
<path d="M0 0 C4.75 1.875 4.75 1.875 7 3 C6.125 10.75 6.125 10.75 5 13 C4.34 13 3.68 13 3 13 C3.0825 11.7625 3.165 10.525 3.25 9.25 C3.2737948 5.89493302 3.19641677 5.24552096 1 2.5 C0.34 2.005 -0.32 1.51 -1 1 C-0.67 0.67 -0.34 0.34 0 0 Z " fill="#F3C5A0" transform="translate(117,111)"/>
<path d="M0 0 C6.75 0.875 6.75 0.875 9 2 C9 4.97 9 7.94 9 11 C8.01 11 7.02 11 6 11 C5.67 8.69 5.34 6.38 5 4 C2.525 3.01 2.525 3.01 0 2 C0 1.34 0 0.68 0 0 Z " fill="#F2C49F" transform="translate(134,103)"/>
<path d="M0 0 C2.97 0 5.94 0 9 0 C12 5.625 12 5.625 12 9 C11.01 9 10.02 9 9 9 C8.67 7.02 8.34 5.04 8 3 C5.36 2.67 2.72 2.34 0 2 C0 1.34 0 0.68 0 0 Z " fill="#F3C9A7" transform="translate(149,93)"/>
<path d="M0 0 C2.96175123 0.61277612 4.38058783 1.25372522 7 3 C6.49287967 6.71888239 5.88391785 9.73454239 4 13 C3.34 13 2.68 13 2 13 C2.33 10.36 2.66 7.72 3 5 C2.01 4.34 1.02 3.68 0 3 C0 2.01 0 1.02 0 0 Z " fill="#F3C7A3" transform="translate(108,115)"/>
<path d="M0 0 C3.3 0.33 6.6 0.66 10 1 C10 3.97 10 6.94 10 10 C9.01 10 8.02 10 7 10 C7 7.69 7 5.38 7 3 C4.69 2.67 2.38 2.34 0 2 C0 1.34 0 0.68 0 0 Z " fill="#F3C5A0" transform="translate(142,98)"/>
<path d="M0 0 C1.67542976 0.28604898 3.34385343 0.61781233 5 1 C4.67 2.65 4.34 4.3 4 6 C2.125 6.625 2.125 6.625 0 7 C-0.66 6.34 -1.32 5.68 -2 5 C-1.46428571 1.46428571 -1.46428571 1.46428571 0 0 Z " fill="#EA6834" transform="translate(213,214)"/>
<path d="M0 0 C0.66 0 1.32 0 2 0 C1.67 2.97 1.34 5.94 1 9 C1.66 9.33 2.32 9.66 3 10 C3 10.99 3 11.98 3 13 C-1.66550523 11.56445993 -1.66550523 11.56445993 -3 9.3125 C-3 5.74726375 -1.53817147 3.19939665 0 0 Z " fill="#F3C5A0" transform="translate(201,171)"/>
<path d="M0 0 C0.66 0 1.32 0 2 0 C1.87431641 0.90492188 1.87431641 0.90492188 1.74609375 1.828125 C1.64425781 2.62734375 1.54242188 3.4265625 1.4375 4.25 C1.33308594 5.03890625 1.22867188 5.8278125 1.12109375 6.640625 C0.99972651 9.00532874 1.30366743 10.7511037 2 13 C-0.34026698 12.0940902 -1.69743734 11.54461278 -2.9375 9.3125 C-3.03431265 5.73043177 -1.54421155 3.21196003 0 0 Z " fill="#F3C8A5" transform="translate(209,166)"/>
<path d="M0 0 C2.0625 0.4375 2.0625 0.4375 4 1 C2.68 2.32 1.36 3.64 0 5 C0.928125 5 1.85625 5 2.8125 5 C4.875 5 6.9375 5 9 5 C8.67 5.99 8.34 6.98 8 8 C0.25 7.125 0.25 7.125 -2 6 C-1.125 1.125 -1.125 1.125 0 0 Z " fill="#F2E1DA" transform="translate(173,61)"/>
<path d="M0 0 C3.05070757 -0.2878026 5.95999538 -0.44198649 9 0 C11.52623559 2.83244597 12 4.21564776 12 8 C11.01 7.67 10.02 7.34 9 7 C8.7525 6.34 8.505 5.68 8.25 5 C7.8375 4.34 7.425 3.68 7 3 C3.43793339 2.18129815 3.43793339 2.18129815 0 2 C0 1.34 0 0.68 0 0 Z " fill="#F3C7A4" transform="translate(155,88)"/>
<path d="M0 0 C0.99 0 1.98 0 3 0 C3 1.65 3 3.3 3 5 C5.64 5 8.28 5 11 5 C11 5.66 11 6.32 11 7 C7.7 7 4.4 7 1 7 C0.67 4.69 0.34 2.38 0 0 Z " fill="#F2C49E" transform="translate(153,205)"/>
<path d="M0 0 C1.9375 0.6875 1.9375 0.6875 4 2 C4.9375 4.3125 4.9375 4.3125 5 7 C3.6875 9.8125 3.6875 9.8125 2 12 C1.34 12 0.68 12 0 12 C0.66 9.69 1.32 7.38 2 5 C1.34 4.34 0.68 3.68 0 3 C0 2.01 0 1.02 0 0 Z " fill="#F3C5A0" transform="translate(101,118)"/>
<path d="M0 0 C0.99 0.33 1.98 0.66 3 1 C3.66 4.96 4.32 8.92 5 13 C4.01 12.67 3.02 12.34 2 12 C1.34 8.04 0.68 4.08 0 0 Z " fill="#F2D9CF" transform="translate(168,232)"/>
<path d="M0 0 C3 1 3 1 4 3 C6.32156597 3.40729228 8.6568787 3.74438677 11 4 C11 4.66 11 5.32 11 6 C7.7 6 4.4 6 1 6 C0.67 4.02 0.34 2.04 0 0 Z " fill="#F3C8A5" transform="translate(146,211)"/>
<path d="M0 0 C0.99 0.33 1.98 0.66 3 1 C3.94921875 3.72265625 3.94921875 3.72265625 4.6875 7.0625 C4.93886719 8.16722656 5.19023437 9.27195313 5.44921875 10.41015625 C5.63097656 11.26480469 5.81273437 12.11945313 6 13 C5.01 13 4.02 13 3 13 C2.49487756 11.39743892 1.99608373 9.79288208 1.5 8.1875 C1.2215625 7.29417969 0.943125 6.40085938 0.65625 5.48046875 C0 3 0 3 0 0 Z " fill="#F2DBD1" transform="translate(172,231)"/>
<path d="M0 0 C0.66 0 1.32 0 2 0 C1.87431641 0.90492188 1.87431641 0.90492188 1.74609375 1.828125 C1.64425781 2.62734375 1.54242188 3.4265625 1.4375 4.25 C1.33308594 5.03890625 1.22867188 5.8278125 1.12109375 6.640625 C0.99972651 9.00532874 1.30366743 10.7511037 2 13 C1.01 12.67 0.02 12.34 -1 12 C-2.11658501 7.31034294 -1.80619523 4.46236469 0 0 Z " fill="#F3C8A5" transform="translate(215,162)"/>
<path d="M0 0 C3.0534135 -0.29359745 5.95743422 -0.4451258 9 0 C11.5625 2.5 11.5625 2.5 13 5 C12.01 5.33 11.02 5.66 10 6 C9.34 5.01 8.68 4.02 8 3 C5.67182036 2.63239269 3.3381615 2.29758419 1 2 C0.67 1.34 0.34 0.68 0 0 Z " fill="#F3C8A4" transform="translate(159,84)"/>
<path d="M0 0 C1.47906892 -0.02689216 2.95827483 -0.04634621 4.4375 -0.0625 C5.26121094 -0.07410156 6.08492187 -0.08570313 6.93359375 -0.09765625 C9 0 9 0 10 1 C10.04080783 2.99958364 10.04254356 5.00045254 10 7 C9.649375 6.360625 9.29875 5.72125 8.9375 5.0625 C6.22815794 2.17836168 3.84141089 2.2899178 0 2 C0 1.34 0 0.68 0 0 Z " fill="#F2E2DB" transform="translate(157,237)"/>
<path d="M0 0 C7 8.44827586 7 8.44827586 7 12 C3.53875184 10.84625061 3.11687417 10.12298029 1.25 7.125 C0.80140625 6.42632812 0.3528125 5.72765625 -0.109375 5.0078125 C-1 3 -1 3 0 0 Z " fill="#F2E0DA" transform="translate(194,222)"/>
<path d="M0 0 C2.4375 0.75 2.4375 0.75 5 2 C5.8125 4.125 5.8125 4.125 6 6 C1.25 5.125 1.25 5.125 -1 4 C-0.67 2.68 -0.34 1.36 0 0 Z " fill="#EA6631" transform="translate(97,225)"/>
<path d="M0 0 C3.65316671 1.24976756 4.78065836 1.67098753 7 5 C4.6875 5.625 4.6875 5.625 2 6 C1.01 5.34 0.02 4.68 -1 4 C-0.67 2.68 -0.34 1.36 0 0 Z " fill="#EA6632" transform="translate(100,220)"/>
<path d="M0 0 C3.37462715 0.54723683 5.08235 1.0549 8 3 C7.67 4.98 7.34 6.96 7 9 C6.01 8.01 5.02 7.02 4 6 C4.66 6 5.32 6 6 6 C5.566875 5.566875 5.13375 5.13375 4.6875 4.6875 C3.125 3.125 1.5625 1.5625 0 0 Z " fill="#F3E7E2" transform="translate(110,228)"/>
<path d="M0 0 C3.63 0.66 7.26 1.32 11 2 C11 2.66 11 3.32 11 4 C6.545 4.495 6.545 4.495 2 5 C2.33 4.34 2.66 3.68 3 3 C2.01 2.01 1.02 1.02 0 0 Z " fill="#F5CDB1" transform="translate(134,219)"/>
<path d="M0 0 C0.33 1.32 0.66 2.64 1 4 C1.66 4.33 2.32 4.66 3 5 C2.34 7.31 1.68 9.62 1 12 C0.34 12 -0.32 12 -1 12 C-0.67 8.04 -0.34 4.08 0 0 Z " fill="#F1D3C8" transform="translate(160,53)"/>
<path d="M0 0 C2.31 0 4.62 0 7 0 C6.67 0.99 6.34 1.98 6 3 C4.02 3 2.04 3 0 3 C0 2.01 0 1.02 0 0 Z " fill="#EB6F3E" transform="translate(159,242)"/>
<path d="M0 0 C0.33 0 0.66 0 1 0 C1.125 2.875 1.125 2.875 1 6 C0.34 6.66 -0.32 7.32 -1 8 C-4.125 7.625 -4.125 7.625 -7 7 C-7 6.67 -7 6.34 -7 6 C-3.535 5.505 -3.535 5.505 0 5 C0 3.35 0 1.7 0 0 Z " fill="#F1CDBF" transform="translate(167,239)"/>
<path d="M0 0 C1.98 0.66 3.96 1.32 6 2 C6 2.66 6 3.32 6 4 C3.69 3.67 1.38 3.34 -1 3 C-0.67 2.01 -0.34 1.02 0 0 Z " fill="#EB7242" transform="translate(109,233)"/>
<path d="M0 0 C0.66 0 1.32 0 2 0 C1.40312566 3.34249629 0.26396123 5.46436342 -2 8 C-2.66 8 -3.32 8 -4 8 C-2.87548273 5.0280615 -1.77706209 2.66559313 0 0 Z " fill="#F3E7E3" transform="translate(97,221)"/>
<path d="M0 0 C-3.96 1.98 -3.96 1.98 -8 4 C-8 3.01 -8 2.02 -8 1 C-4.59449725 -1.06762667 -4.18836538 -1.04709135 0 0 Z " fill="#F2D9CF" transform="translate(192,226)"/>
<path d="M0 0 C1.32 0.33 2.64 0.66 4 1 C4 1.66 4 2.32 4 3 C6.64 3 9.28 3 12 3 C12 3.33 12 3.66 12 4 C8.7 4 5.4 4 2 4 C1.34 2.68 0.68 1.36 0 0 Z " fill="#F3C49E" transform="translate(139,216)"/>
<path d="M0 0 C1.98 0.66 3.96 1.32 6 2 C5.67 2.66 5.34 3.32 5 4 C2.03 3.505 2.03 3.505 -1 3 C-0.67 2.01 -0.34 1.02 0 0 Z " fill="#EB6C3B" transform="translate(174,63)"/>
<path d="M0 0 C1.65 0 3.3 0 5 0 C5.33 0.99 5.66 1.98 6 3 C4.02 3 2.04 3 0 3 C0 2.01 0 1.02 0 0 Z " fill="#EA6530" transform="translate(134,238)"/>
<path d="M0 0 C2.64 0.33 5.28 0.66 8 1 C7.01 1.495 7.01 1.495 6 2 C5.67 2.66 5.34 3.32 5 4 C2.525 3.01 2.525 3.01 0 2 C0 1.34 0 0.68 0 0 Z " fill="#EB7141" transform="translate(122,235)"/>
</svg>
