<?xml version="1.0" encoding="UTF-8"?>
<svg version="1.1" xmlns="http://www.w3.org/2000/svg" width="501" height="501">
<path d="M0 0 C165.33 0 330.66 0 501 0 C501 165.33 501 330.66 501 501 C335.67 501 170.34 501 0 501 C0 335.67 0 170.34 0 0 Z " fill="#FEFEFE" transform="translate(0,0)"/>
<path d="M0 0 C0.74330566 0.01619385 1.48661133 0.0323877 2.25244141 0.04907227 C31.40420488 1.34137953 57.23070875 19.42706262 76.5625 40 C90.52587821 56.40188916 95.40773145 75.14360722 94.49609375 96.38476562 C92.82677449 116.75401237 82.39885289 135.42949133 69.3125 150.625 C68.10207031 152.03652344 68.10207031 152.03652344 66.8671875 153.4765625 C62.05782403 158.93305744 57.31463621 163.51242519 51.3125 167.625 C51.3125 161.355 51.3125 155.085 51.3125 148.625 C49.45173393 151.41614911 48.15288693 154.08741006 46.75 157.125 C38.11973947 174.36472526 23.3595312 184.68107166 5.80078125 191.6171875 C3.32048276 192.43412792 0.86100843 193.05347272 -1.6875 193.625 C-2.85925781 193.90214844 -4.03101563 194.17929687 -5.23828125 194.46484375 C-31.88701586 200.2446407 -60.74506196 197.18610279 -84 182.375 C-94.40002348 175.44663473 -103.77209513 167.310012 -111.6875 157.625 C-107.61638968 155.97143848 -104.02673421 157.36241933 -100 158.5 C-68.97541648 167.15941215 -35.92360514 159.47048283 -8.25 144.25 C16.41022134 130.10663776 32.86972796 108.82130134 40.79736328 81.54443359 C46.09773979 61.79487903 41.15807873 41.96904181 31.3125 24.625 C28.87778996 21.03559293 26.24290137 17.81545863 23.3125 14.625 C22.86132812 14.04878906 22.41015625 13.47257813 21.9453125 12.87890625 C20.67728084 11.23403217 20.67728084 11.23403217 18.3125 9.625 C14.59942396 9.52364511 14.59942396 9.52364511 11.3125 10.625 C9.23499028 14.78001945 9.60453934 19.12919144 10.3125 23.625 C14.54101918 35.81988681 22.1853695 47.66796889 32.3125 55.625 C34.50684521 58.95742934 34.55362189 61.7536034 34.5 65.6875 C34.49033203 67.25177734 34.49033203 67.25177734 34.48046875 68.84765625 C34.3125 71.625 34.3125 71.625 33.3125 74.625 C21.72909339 73.12499051 11.55351785 60.97802657 4.75 52.1875 C2.3125 48.91768293 2.3125 48.91768293 2.3125 46.625 C5.2825 45.635 8.2525 44.645 11.3125 43.625 C10.34828125 43.03332031 9.3840625 42.44164062 8.390625 41.83203125 C7.11429064 41.03432228 5.8382652 40.23611889 4.5625 39.4375 C3.92828125 39.05013672 3.2940625 38.66277344 2.640625 38.26367188 C-4.51177309 33.75617099 -7.58919254 28.31593136 -10.6875 20.625 C-11.1 19.635 -11.5125 18.645 -11.9375 17.625 C-12.93043107 13.65327572 -13.68699982 9.64396781 -12.6875 5.625 C-9.0456715 0.75301187 -5.85527887 -0.1949062 0 0 Z " fill="#022064" transform="translate(284.6875,127.375)"/>
<path d="M0 0 C-1.13369123 3.57638676 -2.40589414 7.06778814 -3.8046875 10.546875 C-9.68042106 25.23691664 -14.51327466 40.03946498 -15 56 C-15.03867188 57.04679932 -15.03867188 57.04679932 -15.078125 58.11474609 C-16.13997723 90.26895882 -6.59996716 121.58717538 15 146 C17.9149234 149.09766324 20.90404674 152.08419919 24 155 C24.66 155.66 25.32 156.32 26 157 C15.58616571 159.94214767 5.83747597 161.68857828 -5 162 C10.24263859 165.43473969 28.39181279 165.13259737 42 157 C53.65889299 149.62291284 61.06533669 139.41585793 64.8125 126.1875 C68.26238949 110.79113603 65.15502714 96.3698064 57 83 C52.117916 76.1650824 46.47831689 71.74519909 39 68 C38.06607422 67.52433594 38.06607422 67.52433594 37.11328125 67.0390625 C30.52449413 64.15200177 23.08362738 63.78399522 16 63 C18.35262427 57.80876335 21.86534613 54.93391107 27 52.6875 C39.84903605 49.76597525 51.75167068 52.62175311 62.8125 59.3125 C67.32915786 62.34978876 71.64909615 65.6655544 75 70 C75 70.66 75 71.32 75 72 C73.73160474 72.50615298 72.46016898 73.00469099 71.1875 73.5 C70.47980469 73.7784375 69.77210938 74.056875 69.04296875 74.34375 C67 75 67 75 64 75 C64 75.66 64 76.32 64 77 C64.721875 77.11730469 65.44375 77.23460937 66.1875 77.35546875 C73.16453611 78.95437286 81.10455967 82.93073251 85.30078125 88.828125 C93.76286333 102.70693809 94.41869093 121.97238028 91.51074219 137.63525391 C87.0697288 154.4749817 75.16744838 167.5698612 60.3984375 176.2109375 C41.33866584 186.24470235 19.23775593 187.99192932 -1.453125 182 C-23.48526984 174.62359909 -40.45492168 161.49339586 -51.12011719 140.78320312 C-53.49011557 135.98007655 -55.36888266 131.09724168 -57 126 C-57.3196875 125.02933594 -57.639375 124.05867188 -57.96875 123.05859375 C-60.27197848 114.53878098 -60.27864635 106.09502564 -60.3125 97.3125 C-60.32083862 95.43002563 -60.32083862 95.43002563 -60.3293457 93.50952148 C-60.25661748 84.38492621 -60.25661748 84.38492621 -58 81 C-57.48050781 81.67546875 -56.96101563 82.3509375 -56.42578125 83.046875 C-55.37970703 84.38492188 -55.37970703 84.38492188 -54.3125 85.75 C-53.62800781 86.63171875 -52.94351563 87.5134375 -52.23828125 88.421875 C-50.01538057 90.98228416 -47.70749594 92.97056346 -45 95 C-45.34933594 94.04738281 -45.69867188 93.09476562 -46.05859375 92.11328125 C-46.51841666 90.84642221 -46.97804162 89.5794913 -47.4375 88.3125 C-47.66759766 87.68666016 -47.89769531 87.06082031 -48.13476562 86.41601562 C-53.81663277 70.68794859 -52.68488509 52.21445999 -46 37 C-41.93841298 28.5039259 -36.6271473 21.65031914 -30 15 C-29.38640625 14.36320312 -28.7728125 13.72640625 -28.140625 13.0703125 C-20.92301781 6.13030559 -10.1807038 0 0 0 Z " fill="#022164" transform="translate(182,95)"/>
<path d="M0 0 C0.76530029 0.11762695 1.53060059 0.23525391 2.3190918 0.35644531 C7.13010157 1.18980662 11.20748804 2.60695677 15.625 4.6875 C12.51065472 7.09908328 9.27308253 9.21941083 5.9375 11.3125 C2.60622189 13.27170654 2.60622189 13.27170654 -0.375 15.6875 C1.48125 15.44 1.48125 15.44 3.375 15.1875 C16.34296407 13.94981682 29.59788198 12.99399035 41.625 18.6875 C42.68976563 19.18507813 43.75453125 19.68265625 44.8515625 20.1953125 C66.77509205 31.23409202 82.47074655 50.76672988 90.625 73.6875 C92.94679821 80.90794066 93.87831661 87.82827286 93.9375 95.375 C93.94595947 96.41889893 93.94595947 96.41889893 93.95458984 97.48388672 C93.88208168 102.43041832 93.88208168 102.43041832 91.625 104.6875 C90.95855469 103.80449219 90.29210937 102.92148438 89.60546875 102.01171875 C72.28885519 79.33784734 51.18907363 63.64974401 23.625 55.6875 C22.57570313 55.35621094 21.52640625 55.02492187 20.4453125 54.68359375 C10.49226736 52.08847462 0.88712475 51.37028084 -9.375 51.4375 C-11.14617187 51.42589844 -11.14617187 51.42589844 -12.953125 51.4140625 C-36.20195137 51.46527137 -56.64876055 58.55851175 -74.375 73.6875 C-75.385625 74.43 -76.39625 75.1725 -77.4375 75.9375 C-89.52424183 86.24878823 -96.39862063 102.46544553 -99.375 117.6875 C-100.035 117.3575 -100.695 117.0275 -101.375 116.6875 C-108.46385679 91.61395099 -102.42565555 60.64471464 -90 38.3125 C-78.30394765 19.41494817 -62.09469907 5.89350356 -40.4609375 0.34375 C-27.17431905 -2.48175873 -13.38909842 -2.09075819 0 0 Z " fill="#022164" transform="translate(279.375,62.3125)"/>
<path d="M0 0 C8.47527588 9.50884611 9.10114762 19.72287289 8.5625 31.875 C7.39744867 47.0872416 3.2377715 63.76156462 -8.0625 74.6875 C-17.84130789 82.65751105 -29.00571876 84.06591758 -41.125 84.125 C-42.16333984 84.145625 -43.20167969 84.16625 -44.27148438 84.1875 C-53.56309549 84.23410369 -62.04961707 82.88839308 -69.4375 76.875 C-77.89579379 68.0232972 -78.92224314 58.34538788 -78.70703125 46.68359375 C-78.07924635 31.53944276 -73.9561167 13.32733677 -62.4375 2.625 C-60.4296875 1.12890625 -60.4296875 1.12890625 -58.4375 -0.125 C-57.80070312 -0.52847656 -57.16390625 -0.93195313 -56.5078125 -1.34765625 C-41.47605431 -9.76906295 -14.26943589 -9.92502843 0 0 Z " fill="#032265" transform="translate(370.4375,355.125)"/>
<path d="M0 0 C8.4843799 -0.09288948 16.96854552 -0.16386033 25.45330906 -0.20724869 C29.39361664 -0.22807839 33.33357501 -0.2563104 37.27368164 -0.30175781 C41.07977137 -0.34538211 44.8855263 -0.36917181 48.69184685 -0.37950897 C50.14027104 -0.38687079 51.58867796 -0.40124672 53.03695869 -0.42292023 C67.20326311 -0.62638941 67.20326311 -0.62638941 73 4 C76.87857403 9.12972694 76.72718564 14.83889969 76 21 C74.15716461 28.66430512 71.63166125 35.36833875 66 41 C66.639375 41.78375 67.27875 42.5675 67.9375 43.375 C72.52408254 49.21246869 71.4915039 56.8529344 71 64 C69.95949198 70.36594274 67.72836258 76.45303241 63 81 C57.71501894 84.39231661 52.7167092 86.12740995 46.42700195 86.11352539 C45.28604568 86.11344986 44.14508942 86.11337433 42.96955872 86.11329651 C41.73823715 86.10813522 40.50691559 86.10297394 39.23828125 86.09765625 C37.97735153 86.0962413 36.71642181 86.09482635 35.4172821 86.09336853 C32.06848291 86.08871575 28.71975189 86.07973342 25.37097168 86.06866455 C21.95239857 86.05842687 18.53381841 86.05386586 15.11523438 86.04882812 C8.41013739 86.03779099 1.70507263 86.02104686 -5 86 C-3.36682835 69.44880055 -0.82503099 53.04648787 1.69189453 36.6105957 C2.23906315 33.02880422 2.77999214 29.4461112 3.3203125 25.86328125 C3.48902863 24.77469315 3.65774475 23.68610504 3.83157349 22.56452942 C5.83754226 12.37535253 5.83754226 12.37535253 2.5 3.0625 C1.675 2.051875 0.85 1.04125 0 0 Z " fill="#022164" transform="translate(211,351)"/>
<path d="M0 0 C9.24 0 18.48 0 28 0 C26.62073701 13.04994986 24.92596663 26.01998844 23 39 C33.552643 30.28592077 42.18375559 20.03115763 50.4921875 9.2265625 C50.91765869 8.69401855 51.34312988 8.16147461 51.78149414 7.61279297 C53.22376503 5.76132189 53.22376503 5.76132189 55.05078125 2.609375 C59.6857016 -1.49145519 64.35518091 -0.64657854 70.3125 -0.375 C71.99569336 -0.33439453 71.99569336 -0.33439453 73.71289062 -0.29296875 C76.47722459 -0.22239001 79.23762415 -0.12384488 82 0 C79.21077496 4.34312896 76.17832028 8.33292259 72.8125 12.25 C72.33200195 12.81356201 71.85150391 13.37712402 71.35644531 13.95776367 C67.66390223 18.27081507 63.8890849 22.5056811 60.07421875 26.7109375 C58.05460167 28.93974279 56.0517926 31.18160117 54.0625 33.4375 C53.24458984 34.36369141 53.24458984 34.36369141 52.41015625 35.30859375 C50.81877961 37.15617506 50.81877961 37.15617506 49 40 C49.556875 40.825 50.11375 41.65 50.6875 42.5 C72 74.5604723 72 74.5604723 72 86 C64.08 86 56.16 86 48 86 C46.6078125 82.9371875 46.6078125 82.9371875 45.1875 79.8125 C42.08947678 73.11903305 38.77576391 66.54426916 35.375 60 C34.69280396 58.67512573 34.69280396 58.67512573 33.99682617 57.32348633 C29.82081609 48.45229607 29.82081609 48.45229607 23 42 C20.69 56.52 18.38 71.04 16 86 C9.4 86 2.8 86 -4 86 C-3.39770358 77.12922529 -2.45277154 68.40642795 -1.15234375 59.61328125 C-0.79087422 57.10353599 -0.42955041 54.59376973 -0.06835938 52.08398438 C0.49759806 48.18672423 1.0658251 44.28981497 1.63696289 40.39331055 C2.19241875 36.59248388 2.73923143 32.79048686 3.28515625 28.98828125 C3.45700943 27.83387039 3.62886261 26.67945953 3.80592346 25.49006653 C4.51445333 20.5308121 5.15458344 15.56782781 5.41967773 10.56323242 C5.46221176 9.82191574 5.50474579 9.08059906 5.54856873 8.31681824 C4.95411174 5.03815481 4.95411174 5.03815481 0 0 Z " fill="#032164" transform="translate(126,351)"/>
<path d="M0 0 C1.08087891 -0.01740234 1.08087891 -0.01740234 2.18359375 -0.03515625 C8.11543897 -0.00297626 12.38768416 1.35517054 17.4140625 4.6171875 C21.45222532 11.15378199 18.45192449 24.06997872 17.1875 31.375 C17.07003418 32.05578613 16.95256836 32.73657227 16.83154297 33.43798828 C15.43493281 40.74209886 13.61340733 47.65100343 7.5 52.375 C2.45098876 54.14931344 -2.24898118 54.7127784 -7.5625 54.6875 C-8.5844043 54.71166992 -8.5844043 54.71166992 -9.62695312 54.73632812 C-14.33270745 54.74084854 -17.57911712 53.98702502 -21.5 51.375 C-26.19976609 45.67591522 -24.89471609 38.3233642 -24.5 31.375 C-22.32834453 9.63431582 -22.32834453 9.63431582 -15.5 3.375 C-10.1648062 0.62027054 -5.96042718 -0.09596394 0 0 Z " fill="#FBFCFD" transform="translate(338.5,366.625)"/>
<path d="M0 0 C4.45827926 -0.0578304 8.9164628 -0.09353855 13.375 -0.125 C15.28152344 -0.15013672 15.28152344 -0.15013672 17.2265625 -0.17578125 C18.43828125 -0.18222656 19.65 -0.18867188 20.8984375 -0.1953125 C22.01911621 -0.20578613 23.13979492 -0.21625977 24.29443359 -0.22705078 C27 0 27 0 29 2 C29.61211092 6.93663485 29.63802582 11.54994131 27.625 16.125 C26 18 26 18 24 19 C22.0406396 19.08510205 20.07837206 19.10717656 18.1171875 19.09765625 C16.95058594 19.09443359 15.78398437 19.09121094 14.58203125 19.08789062 C13.35871094 19.07951172 12.13539063 19.07113281 10.875 19.0625 C9.64394531 19.05798828 8.41289062 19.05347656 7.14453125 19.04882812 C4.09630608 19.0370133 1.04817686 19.02054028 -2 19 C-1.54361721 12.61064092 -1.08910907 6.31760778 0 0 Z " fill="#FDFDFD" transform="translate(231,401)"/>
<path d="M0 0 C4.29161047 -0.05783842 8.58312145 -0.0935412 12.875 -0.125 C14.09832031 -0.14175781 15.32164062 -0.15851563 16.58203125 -0.17578125 C17.74863281 -0.18222656 18.91523438 -0.18867188 20.1171875 -0.1953125 C21.19597168 -0.20578613 22.27475586 -0.21625977 23.38623047 -0.22705078 C26 0 26 0 28 2 C28.3359375 3.98828125 28.3359375 3.98828125 28.375 6.3125 C28.40335937 7.07175781 28.43171875 7.83101563 28.4609375 8.61328125 C27.80859183 11.99110502 26.40412049 13.56492303 24 16 C21.15917969 16.56762695 21.15917969 16.56762695 17.921875 16.48828125 C16.18164062 16.46411133 16.18164062 16.46411133 14.40625 16.43945312 C13.1996875 16.39755859 11.993125 16.35566406 10.75 16.3125 C9.52796875 16.28994141 8.3059375 16.26738281 7.046875 16.24414062 C4.03001498 16.18521758 1.01562485 16.10299265 -2 16 C-1.85833643 14.08302063 -1.71150416 12.16642277 -1.5625 10.25 C-1.48128906 9.18265625 -1.40007812 8.1153125 -1.31640625 7.015625 C-1.05909227 4.56320038 -0.68187782 2.36078709 0 0 Z " fill="#FCFCFD" transform="translate(236,368)"/>
</svg>
